<?xml version="1.0" encoding="UTF-8"?>
<svg width="32" height="32" viewBox="0 0 32 32" xmlns="http://www.w3.org/2000/svg">
  <defs>
    <linearGradient id="favicon-gradient" x1="0%" y1="0%" x2="100%" y2="100%">
      <stop offset="0%" style="stop-color:#1FB8CD"/>
      <stop offset="100%" style="stop-color:#0d9488"/>
    </linearGradient>
  </defs>
  
  <rect width="32" height="32" rx="6" fill="url(#favicon-gradient)"/>
  
  <!-- Simplified building silhouette -->
  <g transform="translate(4, 4)">
    <rect x="0" y="8" width="6" height="16" fill="#ffffff" opacity="0.9"/>
    <rect x="8" y="10" width="6" height="14" fill="#ffffff" opacity="0.9"/>
    <rect x="16" y="6" width="6" height="18" fill="#ffffff" opacity="0.9"/>
    
    <!-- Windows -->
    <rect x="1" y="10" width="1.5" height="2" fill="#1FB8CD"/>
    <rect x="3.5" y="10" width="1.5" height="2" fill="#1FB8CD"/>
    <rect x="1" y="15" width="1.5" height="2" fill="#1FB8CD"/>
    <rect x="3.5" y="15" width="1.5" height="2" fill="#1FB8CD"/>
    
    <rect x="9" y="12" width="1.5" height="2" fill="#1FB8CD"/>
    <rect x="11.5" y="12" width="1.5" height="2" fill="#1FB8CD"/>
    <rect x="9" y="17" width="1.5" height="2" fill="#1FB8CD"/>
    
    <rect x="17" y="8" width="1.5" height="2" fill="#1FB8CD"/>
    <rect x="19.5" y="8" width="1.5" height="2" fill="#1FB8CD"/>
    <rect x="17" y="13" width="1.5" height="2" fill="#1FB8CD"/>
    <rect x="19.5" y="13" width="1.5" height="2" fill="#1FB8CD"/>
    <rect x="17" y="18" width="1.5" height="2" fill="#1FB8CD"/>
    <rect x="19.5" y="18" width="1.5" height="2" fill="#1FB8CD"/>
  </g>
</svg>