<?xml version="1.0" encoding="UTF-8"?>
<svg width="128" height="128" viewBox="0 0 128 128" xmlns="http://www.w3.org/2000/svg">
  <defs>
    <linearGradient id="bg-gradient" x1="0%" y1="0%" x2="100%" y2="100%">
      <stop offset="0%" style="stop-color:#1FB8CD"/>
      <stop offset="100%" style="stop-color:#0d9488"/>
    </linearGradient>
    <linearGradient id="building-gradient" x1="0%" y1="0%" x2="100%" y2="100%">
      <stop offset="0%" style="stop-color:#ffffff"/>
      <stop offset="100%" style="stop-color:#f8fafc"/>
    </linearGradient>
  </defs>
  
  <!-- Background circle -->
  <rect width="128" height="128" rx="25.6" fill="url(#bg-gradient)"/>
  
  <!-- Construction building icon -->
  <g transform="translate(25.6, 19.2)">
    <!-- Main building -->
    <rect x="0" y="32" width="32" height="76.8" fill="url(#building-gradient)" stroke="#ffffff" stroke-width="2"/>
    
    <!-- Second building -->
    <rect x="38.4" y="44.8" width="32" height="64" fill="url(#building-gradient)" stroke="#ffffff" stroke-width="2"/>
    
    <!-- Third building -->
    <rect x="76.8" y="19.2" width="32" height="89.6" fill="url(#building-gradient)" stroke="#ffffff" stroke-width="2"/>
    
    <!-- Windows on buildings -->
    <rect x="6.4" y="44.8" width="7.68" height="10.24" fill="#1FB8CD" opacity="0.7"/>
    <rect x="17.92" y="44.8" width="7.68" height="10.24" fill="#1FB8CD" opacity="0.7"/>
    <rect x="6.4" y="64" width="7.68" height="10.24" fill="#1FB8CD" opacity="0.7"/>
    <rect x="17.92" y="64" width="7.68" height="10.24" fill="#1FB8CD" opacity="0.7"/>
    
    <rect x="44.8" y="57.6" width="7.68" height="10.24" fill="#1FB8CD" opacity="0.7"/>
    <rect x="56.32" y="57.6" width="7.68" height="10.24" fill="#1FB8CD" opacity="0.7"/>
    <rect x="44.8" y="76.8" width="7.68" height="10.24" fill="#1FB8CD" opacity="0.7"/>
    
    <rect x="83.2" y="32" width="7.68" height="10.24" fill="#1FB8CD" opacity="0.7"/>
    <rect x="94.72" y="32" width="7.68" height="10.24" fill="#1FB8CD" opacity="0.7"/>
    <rect x="83.2" y="51.2" width="7.68" height="10.24" fill="#1FB8CD" opacity="0.7"/>
    <rect x="94.72" y="51.2" width="7.68" height="10.24" fill="#1FB8CD" opacity="0.7"/>
    <rect x="83.2" y="70.4" width="7.68" height="10.24" fill="#1FB8CD" opacity="0.7"/>
    <rect x="94.72" y="70.4" width="7.68" height="10.24" fill="#1FB8CD" opacity="0.7"/>
    
    <!-- Crane -->
    <line x1="12.8" y1="32" x2="12.8" y2="6.4" stroke="#ffffff" stroke-width="3"/>
    <line x1="12.8" y1="6.4" x2="51.2" y2="6.4" stroke="#ffffff" stroke-width="3"/>
    <line x1="12.8" y1="12.8" x2="44.8" y2="6.4" stroke="#ffffff" stroke-width="2"/>
    
    <!-- Crane hook -->
    <circle cx="44.8" cy="15.36" r="1.92" fill="#ffffff"/>
    <line x1="44.8" y1="6.4" x2="44.8" y2="15.36" stroke="#ffffff" stroke-width="1"/>
  </g>
</svg>