<?xml version="1.0" encoding="UTF-8"?>
<svg width="96" height="96" viewBox="0 0 96 96" xmlns="http://www.w3.org/2000/svg">
  <defs>
    <linearGradient id="bg-gradient" x1="0%" y1="0%" x2="100%" y2="100%">
      <stop offset="0%" style="stop-color:#1FB8CD"/>
      <stop offset="100%" style="stop-color:#0d9488"/>
    </linearGradient>
    <linearGradient id="building-gradient" x1="0%" y1="0%" x2="100%" y2="100%">
      <stop offset="0%" style="stop-color:#ffffff"/>
      <stop offset="100%" style="stop-color:#f8fafc"/>
    </linearGradient>
  </defs>
  
  <!-- Background circle -->
  <rect width="96" height="96" rx="19.200000000000003" fill="url(#bg-gradient)"/>
  
  <!-- Construction building icon -->
  <g transform="translate(19.200000000000003, 14.399999999999999)">
    <!-- Main building -->
    <rect x="0" y="24" width="24" height="57.599999999999994" fill="url(#building-gradient)" stroke="#ffffff" stroke-width="2"/>
    
    <!-- Second building -->
    <rect x="28.799999999999997" y="33.599999999999994" width="24" height="48" fill="url(#building-gradient)" stroke="#ffffff" stroke-width="2"/>
    
    <!-- Third building -->
    <rect x="57.599999999999994" y="14.399999999999999" width="24" height="67.19999999999999" fill="url(#building-gradient)" stroke="#ffffff" stroke-width="2"/>
    
    <!-- Windows on buildings -->
    <rect x="4.800000000000001" y="33.599999999999994" width="5.76" height="7.68" fill="#1FB8CD" opacity="0.7"/>
    <rect x="13.440000000000001" y="33.599999999999994" width="5.76" height="7.68" fill="#1FB8CD" opacity="0.7"/>
    <rect x="4.800000000000001" y="48" width="5.76" height="7.68" fill="#1FB8CD" opacity="0.7"/>
    <rect x="13.440000000000001" y="48" width="5.76" height="7.68" fill="#1FB8CD" opacity="0.7"/>
    
    <rect x="33.599999999999994" y="43.2" width="5.76" height="7.68" fill="#1FB8CD" opacity="0.7"/>
    <rect x="42.24" y="43.2" width="5.76" height="7.68" fill="#1FB8CD" opacity="0.7"/>
    <rect x="33.599999999999994" y="57.599999999999994" width="5.76" height="7.68" fill="#1FB8CD" opacity="0.7"/>
    
    <rect x="62.400000000000006" y="24" width="5.76" height="7.68" fill="#1FB8CD" opacity="0.7"/>
    <rect x="71.03999999999999" y="24" width="5.76" height="7.68" fill="#1FB8CD" opacity="0.7"/>
    <rect x="62.400000000000006" y="38.400000000000006" width="5.76" height="7.68" fill="#1FB8CD" opacity="0.7"/>
    <rect x="71.03999999999999" y="38.400000000000006" width="5.76" height="7.68" fill="#1FB8CD" opacity="0.7"/>
    <rect x="62.400000000000006" y="52.800000000000004" width="5.76" height="7.68" fill="#1FB8CD" opacity="0.7"/>
    <rect x="71.03999999999999" y="52.800000000000004" width="5.76" height="7.68" fill="#1FB8CD" opacity="0.7"/>
    
    <!-- Crane -->
    <line x1="9.600000000000001" y1="24" x2="9.600000000000001" y2="4.800000000000001" stroke="#ffffff" stroke-width="3"/>
    <line x1="9.600000000000001" y1="4.800000000000001" x2="38.400000000000006" y2="4.800000000000001" stroke="#ffffff" stroke-width="3"/>
    <line x1="9.600000000000001" y1="9.600000000000001" x2="33.599999999999994" y2="4.800000000000001" stroke="#ffffff" stroke-width="2"/>
    
    <!-- Crane hook -->
    <circle cx="33.599999999999994" cy="11.52" r="1.44" fill="#ffffff"/>
    <line x1="33.599999999999994" y1="4.800000000000001" x2="33.599999999999994" y2="11.52" stroke="#ffffff" stroke-width="1"/>
  </g>
</svg>